<svg width="651" height="721" viewBox="0 0 651 721" fill="none" xmlns="http://www.w3.org/2000/svg">
<g clip-path="url(#clip0_1_6)">
<g filter="url(#filter0_dd_1_6)">
<path d="M209 22C276.931 22 332 77.069 332 145V150H416.232C526.004 150 615.2 238.048 616.973 347.336L617 350.654V468.346C617 578.056 528.902 667.201 419.552 668.973L416.232 669H409.11C393.809 669 379.049 663.342 367.668 653.115L230.8 530.117C217.436 518.388 209 501.179 209 482V273.479L157.48 273.48C89.9656 273.48 35.107 219.296 34.0165 152.042L34 150H209V22ZM332 545.52L416.232 545.52C458.452 545.52 492.758 511.656 493.44 469.622L493.45 468.346V350.654C493.45 308.458 459.566 274.171 417.509 273.49L416.232 273.48L332 273.479V545.52Z" fill="black"/>
</g>
<g filter="url(#filter1_i_1_6)">
<path d="M209 22C276.931 22 332 77.069 332 145V546H273C237.654 546 209 517.346 209 482V22Z" fill="black"/>
</g>
<path d="M209 22C276.931 22 332 77.069 332 145V546H273C237.654 546 209 517.346 209 482V22Z" fill="url(#paint0_linear_1_6)"/>
<g filter="url(#filter2_d_1_6)">
<path d="M416.232 150C526.004 150 615.2 238.048 616.973 347.336L617 350.654V468.346C617 578.056 528.902 667.201 419.552 668.973L416.232 669C402.915 669 392.119 658.204 392.119 644.887C392.119 642.915 392.361 640.949 392.84 639.036L416.232 545.52C458.452 545.52 492.758 511.656 493.44 469.622L493.45 468.346V350.654C493.45 308.458 459.566 274.171 417.509 273.49L416.232 273.48H157.48C89.2837 273.48 34 218.196 34 150H416.232Z" fill="black"/>
</g>
<path fill-rule="evenodd" clip-rule="evenodd" d="M416.232 150C526.004 150 615.2 238.048 616.973 347.336L617 350.654V468.346C617 578.056 528.902 667.201 419.552 668.973L416.232 669H409.11C393.809 669 379.049 663.342 367.668 653.115L229.798 529.215C242.216 539.889 255.465 545.325 269.547 545.52C303.651 545.52 352.547 545.52 416.232 545.52C458.452 545.52 492.758 511.656 493.44 469.622L493.45 468.346V350.654C493.45 308.458 459.566 274.171 417.509 273.49L416.232 273.48H157.48C89.2837 273.48 34 218.196 34 150H416.232Z" fill="url(#paint1_linear_1_6)"/>
<mask id="mask0_1_6" style="mask-type:alpha" maskUnits="userSpaceOnUse" x="34" y="150" width="583" height="519">
<path d="M416.232 150C526.004 150 615.2 238.048 616.973 347.336L617 350.654V468.346C617 578.056 528.902 667.201 419.552 668.973L416.232 669H409.11C393.809 669 379.049 663.342 367.668 653.115L229.798 529.215C242.216 539.889 255.465 545.325 269.547 545.52C303.651 545.52 352.547 545.52 416.232 545.52C458.452 545.52 492.758 511.656 493.44 469.622L493.45 468.346V350.654C493.45 308.458 459.566 274.171 417.509 273.49L416.232 273.48H157.48C89.2837 273.48 34 218.196 34 150H416.232Z" fill="white"/>
</mask>
<g mask="url(#mask0_1_6)">
<g filter="url(#filter3_f_1_6)">
<path d="M221.719 472.86L190.27 507.788L426.59 720.571L458.039 685.644L221.719 472.86Z" fill="url(#paint2_linear_1_6)"/>
</g>
</g>
</g>
<defs>
<filter id="filter0_dd_1_6" x="0" y="0" width="651" height="715" filterUnits="userSpaceOnUse" color-interpolation-filters="sRGB">
<feFlood flood-opacity="0" result="BackgroundImageFix"/>
<feColorMatrix in="SourceAlpha" type="matrix" values="0 0 0 0 0 0 0 0 0 0 0 0 0 0 0 0 0 0 127 0" result="hardAlpha"/>
<feOffset dy="12"/>
<feGaussianBlur stdDeviation="17"/>
<feColorMatrix type="matrix" values="0 0 0 0 0 0 0 0 0 0 0 0 0 0 0 0 0 0 0.25 0"/>
<feBlend mode="normal" in2="BackgroundImageFix" result="effect1_dropShadow_1_6"/>
<feColorMatrix in="SourceAlpha" type="matrix" values="0 0 0 0 0 0 0 0 0 0 0 0 0 0 0 0 0 0 127 0" result="hardAlpha"/>
<feOffset dy="12"/>
<feGaussianBlur stdDeviation="7"/>
<feColorMatrix type="matrix" values="0 0 0 0 0 0 0 0 0 0 0 0 0 0 0 0 0 0 0.125 0"/>
<feBlend mode="normal" in2="effect1_dropShadow_1_6" result="effect2_dropShadow_1_6"/>
<feBlend mode="normal" in="SourceGraphic" in2="effect2_dropShadow_1_6" result="shape"/>
</filter>
<filter id="filter1_i_1_6" x="209" y="8" width="123" height="538" filterUnits="userSpaceOnUse" color-interpolation-filters="sRGB">
<feFlood flood-opacity="0" result="BackgroundImageFix"/>
<feBlend mode="normal" in="SourceGraphic" in2="BackgroundImageFix" result="shape"/>
<feColorMatrix in="SourceAlpha" type="matrix" values="0 0 0 0 0 0 0 0 0 0 0 0 0 0 0 0 0 0 127 0" result="hardAlpha"/>
<feOffset dy="-14"/>
<feGaussianBlur stdDeviation="11.5"/>
<feComposite in2="hardAlpha" operator="arithmetic" k2="-1" k3="1"/>
<feColorMatrix type="matrix" values="0 0 0 0 0.999902 0 0 0 0 1 0 0 0 0 0.99988 0 0 0 0.793127 0"/>
<feBlend mode="normal" in2="shape" result="effect1_innerShadow_1_6"/>
</filter>
<filter id="filter2_d_1_6" x="4" y="142" width="643" height="579" filterUnits="userSpaceOnUse" color-interpolation-filters="sRGB">
<feFlood flood-opacity="0" result="BackgroundImageFix"/>
<feColorMatrix in="SourceAlpha" type="matrix" values="0 0 0 0 0 0 0 0 0 0 0 0 0 0 0 0 0 0 127 0" result="hardAlpha"/>
<feOffset dy="22"/>
<feGaussianBlur stdDeviation="15"/>
<feColorMatrix type="matrix" values="0 0 0 0 0.0259061 0 0 0 0 0.0413492 0 0 0 0 0.317767 0 0 0 0.387924 0"/>
<feBlend mode="normal" in2="BackgroundImageFix" result="effect1_dropShadow_1_6"/>
<feBlend mode="normal" in="SourceGraphic" in2="effect1_dropShadow_1_6" result="shape"/>
</filter>
<filter id="filter3_f_1_6" x="187.27" y="469.86" width="273.769" height="253.711" filterUnits="userSpaceOnUse" color-interpolation-filters="sRGB">
<feFlood flood-opacity="0" result="BackgroundImageFix"/>
<feBlend mode="normal" in="SourceGraphic" in2="BackgroundImageFix" result="shape"/>
<feGaussianBlur stdDeviation="1.5" result="effect1_foregroundBlur_1_6"/>
</filter>
<linearGradient id="paint0_linear_1_6" x1="270.5" y1="22" x2="270.5" y2="546" gradientUnits="userSpaceOnUse">
<stop stop-color="#E4EAF7"/>
<stop offset="1" stop-color="#C6D8FF"/>
</linearGradient>
<linearGradient id="paint1_linear_1_6" x1="325.5" y1="150" x2="325.5" y2="669" gradientUnits="userSpaceOnUse">
<stop stop-color="#F5F8FF"/>
<stop offset="1" stop-color="#D5E2FF"/>
</linearGradient>
<linearGradient id="paint2_linear_1_6" x1="339.879" y1="579.252" x2="315.3" y2="606.549" gradientUnits="userSpaceOnUse">
<stop stop-color="#D8E3FF" stop-opacity="0"/>
<stop offset="1" stop-color="#6589DF"/>
</linearGradient>
<clipPath id="clip0_1_6">
<rect width="651" height="721" fill="white"/>
</clipPath>
</defs>
</svg>
